<?xml version="1.0" encoding="utf-8"?>
<!-- Generator: Adobe Illustrator 22.1.0, SVG Export Plug-In . SVG Version: 6.00 Build 0)  -->
<svg version="1.0" id="Layer_1" xmlns="http://www.w3.org/2000/svg" xmlns:xlink="http://www.w3.org/1999/xlink" x="0px" y="0px"
	 width="1000px" height="750px" viewBox="0 0 1000 750" style="enable-background:new 0 0 1000 750;" xml:space="preserve">
<style type="text/css">
	.st0{fill-rule:evenodd;clip-rule:evenodd;fill:#6DBCE3;}
	.st1{fill-rule:evenodd;clip-rule:evenodd;fill:#0093D0;}
	.st2{fill-rule:evenodd;clip-rule:evenodd;fill:#B4D8EF;}
	.st3{fill-rule:evenodd;clip-rule:evenodd;fill:#3C3F47;}
</style>
<g>
	<polygon class="st0" points="219.9,307.3 181.5,380.1 216.3,417.5 254.8,379.9 266.7,309.7 219.9,307.3 	"/>
	<polygon class="st1" points="107,301.2 177.2,375.7 214.1,306.9 107,301.2 	"/>
	<polygon class="st1" points="209.5,301.2 150.5,279.5 159.6,298 209.5,301.2 	"/>
	<polygon class="st2" points="265.7,303.8 248.5,279.5 223.3,302.2 265.7,303.8 	"/>
	<polygon class="st1" points="183.8,391.1 165.1,467.7 212.2,421.6 183.8,391.1 	"/>
	<polygon class="st1" points="360.1,279.5 255.7,279.5 272.9,303.7 360.1,279.5 	"/>
	<path class="st3" d="M332.6,389.1h-9.6l-8.4,52.8c-0.2,1.4-1.5,2.5-2.9,2.5l-19.1,0c-1.4,0-2.3-1.1-2.1-2.5l11.7-74
		c3-18.7,12.4-22.9,25.4-22.9c4,0,8.2,0.4,11.5,1c1.5,0.3,2.5,1.1,2.2,2.5l-1.9,11.9c-0.2,1.4-1.5,2.4-3,2.4l-5.3,0
		c-3.1,0-4.2,1.3-4.8,5l-0.5,3.4h9.6c1.4,0,2.3,1.1,2.1,2.5l-2,12.8C335.3,388,334,389.1,332.6,389.1L332.6,389.1L332.6,389.1z
		 M380.3,390h-1.8c-5.4,0-10.7,0.8-14.9,2.9l-7.7,48.8c-0.2,1.4-1.4,2.8-3,2.8h-18.9c-1.5,0-2.5-1.4-2.3-2.8l10.7-67.9
		c0.2-1.4,1.2-2.5,2.9-2.5h18.1c1.8,0,2.4,0.6,2.1,2.5l-0.5,3c6.6-5.9,11.2-6.5,17.9-6.5c2.1,0,2.4,0.5,2.1,2.5l-2.4,15.3
		C382.5,389.6,381.9,390,380.3,390L380.3,390L380.3,390z M443.4,414.6h-39.1l0,0.3c-1.1,6.7,1.1,10.8,10.2,10.8c6.7,0,19.1-0.6,24-1
		c2-0.1,2.7,0.2,2.4,2.1l-1.8,11.3c-0.3,2-1,2.9-3.1,3.5c-8.5,2.6-17.3,3.9-27.9,3.9c-17,0-31.3-8.9-27.5-32.9l1.3-8.3
		c3.5-22.1,18.2-34.2,38.8-34.2c22,0,30,14,26.8,34.2l-1.2,7.5C446.3,413.5,444.9,414.6,443.4,414.6L443.4,414.6L443.4,414.6z
		 M425.1,400.9c1.2-7.5-1.1-12.1-7.4-12.1c-6,0-10,4.5-11.2,12.1l-0.1,0.4h18.6L425.1,400.9L425.1,400.9L425.1,400.9z M513,414.6
		h-39.1l0,0.3c-1.1,6.7,1.1,10.8,10.2,10.8c6.7,0,19.1-0.6,24-1c2-0.1,2.7,0.2,2.4,2.1l-1.8,11.3c-0.3,2-1,2.9-3.1,3.5
		c-8.5,2.6-17.3,3.9-27.9,3.9c-17,0-31.3-8.9-27.5-32.9l1.3-8.3c3.5-22.1,18.2-34.2,38.9-34.2c22,0,30,14,26.8,34.2l-1.2,7.5
		C515.8,413.5,514.5,414.6,513,414.6L513,414.6L513,414.6z M494.7,400.9c1.2-7.5-1.1-12.1-7.4-12.1c-6,0-10,4.5-11.2,12.1l-0.1,0.4
		h18.6L494.7,400.9L494.7,400.9L494.7,400.9z M538.5,444.4h-19c-1.4,0-2.5-1.4-2.3-2.8l14.6-91.9c0.2-1.4,1.8-2.5,3.2-2.5h19
		c1.4,0,2.3,1.1,2.1,2.5l-14.6,91.9C541.3,443,539.9,444.4,538.5,444.4L538.5,444.4L538.5,444.4z M605.3,444.4h-17.5
		c-1.4,0-2.3-1.1-2.1-2.5l0.4-2.6c-5.3,3.5-12.1,6.3-19,6.3c-9.9,0-20.6-5.5-17.9-22.5l0.2-1.5c2.4-15.1,14.7-20.5,35.7-20.5h5.4
		l0.6-3.6c1-6.2-0.9-7.3-7.1-7.3c-7,0-18.5,0.6-22,0.9c-2.2,0.1-2.6-1-2.4-2.5l1.9-12.2c0.3-1.9,1.4-2.5,3-3c4.3-1.3,15.4-3,23.5-3
		c18.2,0,30.5,6.5,27.3,27.2l-7,44.5C608,443.3,606.7,444.4,605.3,444.4L605.3,444.4L605.3,444.4z M589.3,414.1h-6.2
		c-6.3,0-9.1,2-10,7.3l-0.2,1.3c-0.7,4.3,2,5.5,5.5,5.5c3,0,6.6-0.9,8.8-1.9L589.3,414.1L589.3,414.1L589.3,414.1z M677.9,444.4
		h-18.9c-1.5,0-2.5-1.4-2.3-2.8l6.7-42.6c1.1-6.7-0.7-8.8-6.4-8.8c-2.9,0-6.7,1.1-9.8,2.6l-7.7,48.8c-0.2,1.4-1.4,2.8-3,2.8h-18.9
		c-1.5,0-2.5-1.4-2.3-2.8l10.7-67.9c0.2-1.4,1.5-2.5,2.9-2.5h17.5c1.4,0,2.3,1.1,2.1,2.5l-0.5,2.9c7.5-5,14.7-6.4,21.8-6.4
		c19.7,0,20.1,13.8,17.7,28.8l-6.7,42.6C680.6,443,679.4,444.4,677.9,444.4L677.9,444.4L677.9,444.4z M733.7,443.5
		c-4.4,1-10.1,2-17.5,2c-19.2,0-28.1-12.3-24.8-32.9l1.5-9.4c3.2-20.5,16-33.1,35.3-33.1c7.4,0,13.5,1.1,16.9,2
		c1.6,0.4,2.4,1,2.1,2.6l-2.2,14.2c-0.2,1.5-1.2,2.6-3,2.4c-4.2-0.4-8.2-0.9-14.3-0.9c-5.4,0-9.1,3.4-10.6,12.7l-1.5,9.4
		c-1.5,9.3,1.2,12.6,6.6,12.6c6.2,0,10.2-0.2,14.6-0.8c1.9-0.2,2.5,0.8,2.3,2.4l-2.2,14.1C736.4,442.5,735.4,443.2,733.7,443.5
		L733.7,443.5L733.7,443.5z M807.5,414.6h-39.1l0,0.3c-1.1,6.7,1.1,10.8,10.2,10.8c6.7,0,19.1-0.6,24-1c2-0.1,2.7,0.2,2.4,2.1
		l-1.8,11.3c-0.3,2-1,2.9-3.1,3.5c-8.5,2.6-17.3,3.9-27.9,3.9c-17,0-31.3-8.9-27.5-32.9l1.3-8.3c3.5-22.1,18.2-34.2,38.8-34.2
		c22,0,30,14,26.8,34.2l-1.2,7.5C810.3,413.5,809,414.6,807.5,414.6L807.5,414.6L807.5,414.6z M789.1,400.9
		c1.2-7.5-1.1-12.1-7.4-12.1c-6,0-10,4.5-11.2,12.1l-0.1,0.4h18.6L789.1,400.9L789.1,400.9L789.1,400.9z M847,371.3l-11.2,70.4
		c-0.2,1.4-1.4,2.8-3,2.8H814c-1.5,0-2.5-1.4-2.3-2.8l7.4-46.6L847,371.3L847,371.3L847,371.3z"/>
	<polygon class="st1" points="891,371.3 853.4,371.3 849.5,395.4 891,371.3 	"/>
</g>
</svg>
